<svg width="128" height="128" viewBox="0 0 128 128" fill="none" xmlns="http://www.w3.org/2000/svg">
<path d="M105.24 68.76C105.852 68.7763 106.456 68.6166 106.98 68.3C107.8 67.78 107.28 50.3 106.98 49.54C105.393 48.7059 103.696 48.1 101.94 47.74C101.634 41.297 100.696 34.8997 99.14 28.64C96.76 20.28 88.18 13.4 79.36 11.04C69.4674 8.18337 58.9978 7.97646 49 10.44C38.5 13.38 33 16.92 27.7 25.56C22.4 34.2 22.36 49.28 22.36 49.28C20.9385 49.549 19.5504 49.9715 18.22 50.54C17.66 51.06 18.42 65.04 18.82 68.28C19.22 71.52 20.82 71.24 20.82 71.24C20.82 71.24 6.94003 105.58 7.56003 106.98C8.18003 108.38 25.86 118.98 60.22 119.28C94.58 119.58 120 108.92 120.42 106.82C120.84 104.72 105.24 68.76 105.24 68.76ZM66.68 12.52C67.6 12.16 80.04 12.86 87.52 19.42C95 25.98 95.64 30.64 95.14 30.74C94.64 30.84 90.1 28.74 89.86 29.2C89.62 29.66 89.56 30.8 89.98 31.04C90.4 31.28 95.36 33.24 95.62 33.56C95.8813 34.1689 96.0693 34.8067 96.18 35.46C94.256 34.5187 92.247 33.762 90.18 33.2C89.94 33.54 89.72 35.04 90.18 35.2C90.64 35.36 96.18 37.8 96.18 37.8L96.4 39.38C96.4 39.38 90.74 37.02 90.4 37.1C90.06 37.18 89.68 38.7 90.1 38.94C90.52 39.18 96.42 41.46 96.6 41.8C96.78 42.14 97.42 44.52 97.42 44.52L94 43.44C94 43.44 94.62 45.18 94.96 45.44C95.3 45.7 97.56 46.28 97.58 46.96C97.8315 49.1713 97.965 51.3945 97.98 53.62C97.74 53.62 93.58 40.72 87.56 39.44C81.54 38.16 69.56 42.98 69.56 42.98C68.2419 36.8104 67.3068 30.5651 66.76 24.28C66.46 16.94 65.78 12.88 66.68 12.52ZM60.1 12.68C61.3365 12.3895 62.6235 12.3895 63.86 12.68C64 13 66 36 66.42 39.12C66.8142 40.7158 66.9957 42.3566 66.96 44C66.028 44.7791 64.8714 45.24 63.6589 45.3156C62.4465 45.3911 61.2416 45.0773 60.22 44.42C60.22 44.42 61.28 37.04 61.3 34.64C61.32 32.24 59.7 12.94 60.1 12.68ZM29.08 32C32.5179 25.1101 37.9089 19.3852 44.58 15.54C48.7335 13.8749 53.1318 12.902 57.6 12.66C57.7 12.98 58.94 33.12 58.92 35.88C58.7404 38.5714 58.3593 41.2455 57.78 43.88C57.78 43.88 49.78 39 41.46 41.12C37.8808 42.0423 34.6096 43.8956 31.9785 46.4915C29.3475 49.0874 27.4504 52.3335 26.48 55.9C26.48 55.9 25.28 40.54 29.08 32ZM112.82 106.16C112.4 106 102.82 94.74 102.04 94.5C101.26 94.26 101.14 95.7 101.14 95.7C101.14 95.7 111.5 106.7 111.26 106.96C110.523 107.397 109.754 107.778 108.96 108.1C108.96 108.1 100.28 98.1 99.96 98.22C99.64 98.34 98.58 99.42 99.16 99.84C102.06 102.566 104.779 105.479 107.3 108.56C106.526 108.899 105.723 109.166 104.9 109.36C102.67 106.778 100.3 104.321 97.8 102C97.3 102 96.58 102.78 96.82 103.1C97.06 103.42 103.5 109.68 103.26 110.02C102.529 110.384 101.747 110.633 100.94 110.76C100.94 110.76 96 105.58 95.64 105.58C95.28 105.58 94.16 106.2 94.58 106.78C95 107.36 99.36 111.16 99.12 111.34C98.4685 111.536 97.7982 111.664 97.12 111.72C96.86 111.72 93.12 107.72 92.68 107.72C92.24 107.72 91.12 108.1 91.38 108.68C91.64 109.26 95.04 112.26 94.64 112.52C94.24 112.78 84.3 115.84 63.12 115.54C41.94 115.24 33.44 111.84 33.44 111.84C30.7793 109.211 27.9608 106.746 25 104.46C24.26 104.46 23.44 105.66 23.78 105.9C25.799 107.506 27.7098 109.243 29.5 111.1C29.18 111.1 22.96 109.26 20.86 108.9C19.2994 108.729 17.7746 108.318 16.34 107.68C16.34 107.42 28.34 78.78 28.88 78.86C29.42 78.94 37.46 99 37.46 99C37.2308 100.093 37.3374 101.23 37.7657 102.261C38.1939 103.293 38.924 104.171 39.86 104.78C40.982 105.246 42.1974 105.443 43.4092 105.357C44.6211 105.27 45.7959 104.901 46.84 104.28L77.86 104.44C78.1 104.44 83.16 106.98 85.24 103.08C87.32 99.18 86.12 97.74 86.12 97.74C86.12 97.74 94.12 75.2 93.64 74.7C92.5117 74.28 91.3232 74.0436 90.12 74C90.12 74 84.62 94.64 84.12 94.66C83.62 94.68 81.6 94.06 80.76 93.98C80.2948 93.9285 79.8253 93.9285 79.36 93.98L68.4 78.74C68.4 78.74 70.6 66.74 61.84 66.74C53.08 66.74 55.56 78.74 55.56 78.74C55.56 78.74 53.56 78.62 51.56 81.76C49.56 84.9 44.78 94.34 44.78 94.34C43.7965 94.2826 42.8113 94.4185 41.88 94.74C40.56 95.28 39.74 95.72 39.74 95.72C39.74 95.72 32.66 79.14 32.82 78.8C32.98 78.46 34.46 74.5 35.22 74.48C35.98 74.46 41.08 75.26 43.08 75.3C45.08 75.34 45.4 75.08 45.48 74.74C45.56 74.4 46.02 73.14 45.68 73.14C45.34 73.14 35.46 72 34.72 72C33.98 72 32.58 76.28 32 76.46C31.42 76.64 29.36 76.96 29.6 76.46C29.84 75.96 33.92 66.2 34.18 66.26C34.44 66.32 49.24 68.4 53.64 67.54C58.04 66.68 59.16 65.32 59.78 63.22C60.4081 58.8563 60.5757 54.4387 60.28 50.04C56.3214 48.4823 52.1304 47.5968 47.88 47.42C42.3 47.24 38.54 47.16 36.14 51.06C33.74 54.96 14.56 106.48 14.22 106.58C13.5837 106.469 12.9649 106.274 12.38 106C12.38 106 22.2 78 25.94 67.48C29.68 56.96 32.88 44.32 44.88 44.52C49.3 44.52 59.26 49.42 64.4 48.2C69.54 46.98 78.18 42.62 83.42 42.58C88.66 42.54 91.56 47.54 96.14 58.26C100.72 68.98 110.42 92.94 110.14 92.94C109.86 92.94 93.94 57.16 90.82 52.48C87.7 47.8 85.5 46.48 79.1 46.94C72.7 47.4 65.48 48.94 65.4 49.76C65.32 50.58 65.4 64.1 66.38 65.26C67.36 66.42 72.5 66.68 78.74 66.28C84.98 65.88 88.74 65.62 90.28 65C91.4687 64.4442 92.6007 63.7744 93.66 63L109.24 96C107.393 94.1683 105.428 92.458 103.36 90.88C102.94 90.98 102.74 92.48 102.98 92.64C103.22 92.8 110.32 99.3 110.98 100.04C112.268 101.653 113.349 103.42 114.2 105.3C114 105.56 113.24 106.32 112.82 106.16ZM66.58 99.88C67.32 100.02 67.92 100.42 67.9 99.76C67.88 99.1 67.52 84.26 68.02 84.18C68.52 84.1 69.52 87.22 69.52 87.22C69.52 87.22 69.24 100.06 69.52 100.14C69.8 100.22 71.28 100.68 71.2 100.26C71.12 99.84 71.2 90.76 71.2 90.76L74.06 95.28L72.48 95.4C72.48 95.4 72.32 99.4 72.82 99.4C73.2927 99.4354 73.7674 99.4354 74.24 99.4C74.48 99.4 74.46 101.72 74.46 101.72C74.46 101.72 59.94 101.34 54.86 101.46C49.78 101.58 49.38 101.68 49.38 101.68C49.2216 100.298 48.8506 98.9487 48.28 97.68L47.04 95.12C47.04 95.12 56.62 80.72 57.36 80.46C58.8578 80.575 60.3622 80.575 61.86 80.46L66.44 80.28C66.44 80.28 65.82 99.72 66.58 99.88ZM61.14 82.26C60.9 82.26 61.4 99.34 61.4 99.68C61.4 100.02 62.66 100.14 63.16 99.68C63.66 99.22 62.9 82.76 62.82 82.42C62.74 82.08 61.7 82 61.14 82.26ZM57.48 82.52C57.48 82.52 58.06 99.5 58.08 99.84C58.1 100.18 59.48 99.84 59.82 99.84C60.16 99.84 59.24 82.84 59.06 82.52C58.88 82.2 58 82.34 57.48 82.52ZM54 89.6C53.84 90.02 54.58 99.76 54.58 99.76C55.1097 99.79 55.641 99.7497 56.16 99.64C56.1966 96.1351 56.0565 92.6307 55.74 89.14C55.72 88.8 54.1 89.32 54 89.6ZM50.52 93.6C50.52 94.02 50.76 99.76 50.76 99.76C51.2947 99.7198 51.8241 99.626 52.34 99.48C52.4526 97.1673 52.278 94.8496 51.82 92.58C51.64 92.32 50.56 93.26 50.5 93.6H50.52ZM95.18 70C93.9839 70.0429 92.7933 70.1834 91.62 70.42C88.04 70.84 82.84 70.96 82.46 71.16C81.72 71.5 82.68 73.32 82.68 73.32C82.68 73.32 84.34 73.32 87.26 73.32C90.2176 73.253 93.1546 72.8095 96 72C96.14 71.82 95.6 70.16 95.18 70ZM84 76.78C83.66 76.78 82.92 77.38 83.02 77.8C83.8881 78.9948 84.8877 80.0883 86 81.06C86.42 81.38 86.8 79.8 86.8 79.8C86.8 79.8 84.62 76.6 84 76.78ZM80.88 79.36C80.64 79.36 79.82 79.88 79.9 80.3C81.4031 81.8359 83.0284 83.2472 84.76 84.52C85.02 84.52 85.16 83.76 85.32 83.34C85.48 82.92 81.4 79.16 80.82 79.36H80.88ZM78.88 82.32C78.54 82.58 77.72 82.68 77.48 83.1C77.24 83.52 83.1 88.3 83.1 88.3C83.4109 87.8952 83.6541 87.4426 83.82 86.96C84 86.36 78.82 82.32 78.82 82.32H78.88ZM34 103.5C34.26 103.5 34.5 103.08 34.48 102.24C34.46 101.4 29.24 96.94 28.84 96.8C28.44 96.66 28.04 98.4 28.14 98.8C29.9819 100.501 31.94 102.071 34 103.5ZM27.34 101C27.34 101 26.3 102.44 26.38 103C28.9474 105.242 31.6746 107.294 34.54 109.14C34.78 109.14 35.02 108.22 35 107.8C34.98 107.38 27.34 101 27.34 101ZM35.14 34.88C35.64 34.7 35.14 32.46 36.74 28.76C37.9718 26.3743 39.8591 24.3898 42.18 23.04C42.52 22.62 41.9 21.62 40.98 21.4C40.06 21.18 37.94 22.98 35.68 26.2C33.42 29.42 32.2 33.54 32.54 34C33.2628 34.614 34.1929 34.9288 35.14 34.88ZM89.82 28C90.7482 28.4067 91.7039 28.7475 92.68 29.02C93.44 29.16 93.08 28 92.9 27.5C91.9705 26.8181 90.8526 26.4408 89.7 26.42C89.2 26.56 89.48 27.88 89.82 28Z" fill="#F49200"/>
</svg>
